<svg width="640" height="320" viewBox="0 0 640 320" fill="none" xmlns="http://www.w3.org/2000/svg">
  <defs>
    <linearGradient id="g2" x1="0" y1="0" x2="1" y2="1">
      <stop offset="0" stop-color="#f59e0b"/>
      <stop offset="1" stop-color="#ef4444"/>
    </linearGradient>
    <filter id="s2" x="-20%" y="-20%" width="140%" height="140%">
      <feDropShadow dx="0" dy="8" stdDeviation="10" flood-color="#0f172a" flood-opacity="0.12"/>
    </filter>
  </defs>
  <rect x="0" y="0" width="640" height="320" rx="24" fill="#fff7ed"/>
  <g filter="url(#s2)">
    <rect x="110" y="58" width="420" height="204" rx="28" fill="white" stroke="#fed7aa"/>
    <rect x="144" y="94" width="204" height="16" rx="8" fill="#fde68a"/>
    <rect x="144" y="122" width="260" height="12" rx="6" fill="#fee2e2"/>
    <rect x="144" y="144" width="232" height="12" rx="6" fill="#fee2e2"/>
    <g>
      <circle cx="430" cy="156" r="44" fill="url(#g2)" opacity="0.14"/>
      <path d="M452 186L470 204" stroke="#9a3412" stroke-width="10" stroke-linecap="round"/>
      <circle cx="430" cy="156" r="28" stroke="url(#g2)" stroke-width="10"/>
      <path d="M424 150h12M430 144v24" stroke="#9a3412" stroke-width="6" stroke-linecap="round"/>
    </g>
    <rect x="144" y="188" width="172" height="14" rx="7" fill="#e2e8f0"/>
    <rect x="144" y="210" width="220" height="14" rx="7" fill="#e2e8f0"/>
  </g>
  <g opacity="0.9">
    <circle cx="70" cy="98" r="18" fill="#fb7185" opacity="0.18"/>
    <circle cx="574" cy="98" r="22" fill="#f59e0b" opacity="0.22"/>
    <circle cx="560" cy="254" r="16" fill="#60a5fa" opacity="0.20"/>
  </g>
</svg>

