<svg width="640" height="320" viewBox="0 0 640 320" fill="none" xmlns="http://www.w3.org/2000/svg">
  <defs>
    <linearGradient id="g" x1="0" y1="0" x2="1" y2="1">
      <stop offset="0" stop-color="#34d399"/>
      <stop offset="1" stop-color="#3b82f6"/>
    </linearGradient>
    <filter id="s" x="-20%" y="-20%" width="140%" height="140%">
      <feDropShadow dx="0" dy="8" stdDeviation="10" flood-color="#0f172a" flood-opacity="0.12"/>
    </filter>
  </defs>
  <rect x="0" y="0" width="640" height="320" rx="24" fill="#f8fafc"/>
  <path d="M76 232C130 154 206 116 292 116C378 116 454 154 508 232" stroke="#e2e8f0" stroke-width="18" stroke-linecap="round"/>
  <path d="M112 232C156 168 220 140 292 140C364 140 428 168 472 232" stroke="#cbd5e1" stroke-width="12" stroke-linecap="round"/>
  <g filter="url(#s)">
    <rect x="214" y="56" width="212" height="212" rx="28" fill="white" stroke="#e2e8f0"/>
    <rect x="248" y="92" width="144" height="16" rx="8" fill="#e2e8f0"/>
    <rect x="248" y="122" width="108" height="12" rx="6" fill="#e2e8f0"/>
    <rect x="248" y="144" width="120" height="12" rx="6" fill="#e2e8f0"/>
    <circle cx="270" cy="194" r="34" fill="url(#g)" opacity="0.18"/>
    <path d="M270 168C270 168 282 182 294 194C282 206 270 220 270 220C258 206 246 194 246 194C258 182 270 168 270 168Z" fill="url(#g)"/>
    <rect x="314" y="176" width="78" height="14" rx="7" fill="#e2e8f0"/>
    <rect x="314" y="198" width="62" height="14" rx="7" fill="#e2e8f0"/>
  </g>
  <g opacity="0.9">
    <circle cx="96" cy="86" r="18" fill="#60a5fa" opacity="0.25"/>
    <circle cx="552" cy="92" r="22" fill="#34d399" opacity="0.22"/>
    <circle cx="548" cy="250" r="16" fill="#f59e0b" opacity="0.18"/>
  </g>
</svg>

